<?xml version="1.0" encoding="UTF-8"?>
<svg id="Layer_2" data-name="Layer 2" xmlns="http://www.w3.org/2000/svg" viewBox="0 0 294.66 212.48">
  <defs>
    <style>
      .cls-1 {
        fill: #b56062;
        stroke-width: 3.2px;
      }

      .cls-1, .cls-2 {
        stroke: #773c36;
        stroke-miterlimit: 10;
      }

      .cls-2 {
        fill: #f69ea5;
        stroke-width: 3.45px;
      }
    </style>
  </defs>
  <g id="Layer_1-2" data-name="Layer 1">
    <g>
      <path class="cls-2" d="m292.02,92.41c-2.12-12.22-7.35-21.84-12.42-23.59-.52-.97-1.06-1.93-1.62-2.89.59-.93.93-2.02.93-3.2,0-3.31-2.69-6-6-6-.36,0-.71.04-1.05.1-1.49-1.96-3.08-3.88-4.75-5.77.58-.54.9-1.35.77-2.2-.2-1.37-1.47-2.31-2.84-2.11-.52.08-.98.31-1.34.65-1.32-1.36-2.69-2.69-4.1-4,.25-.46.36-.99.28-1.54-.2-1.37-1.47-2.31-2.84-2.11-.4.06-.75.22-1.06.43-.19-.16-.38-.32-.56-.47.38-.51.56-1.17.46-1.85-.2-1.37-1.47-2.31-2.84-2.11-.61.09-1.12.4-1.5.83-2.16-1.67-4.4-3.3-6.71-4.87.05-.32.08-.65.08-.99,0-3.87-3.13-7-7-7-1.51,0-2.9.48-4.04,1.29-4.35-2.4-8.9-4.62-13.63-6.65-2.86-4.62-11.6-9.26-22.49-11.46-7.38-1.49-14.28-1.57-19.34-.48-6.2-.99-12.56-1.69-19.04-2.07-1.28-1.6-3.25-2.63-5.47-2.63-2.05,0-3.88.88-5.16,2.28-.45,0-.89-.01-1.34-.01-4.7,0-9.35.17-13.94.49-1.28-1.67-3.29-2.76-5.56-2.76s-4.37,1.14-5.65,2.88c-1.09-1.15-2.64-1.88-4.35-1.88-2.77,0-5.1,1.88-5.79,4.43-.83.15-1.65.31-2.48.48-5.26-1.36-13.29-.95-21.83,1.47-10.66,3.02-19,8.3-21.52,13.11-1.51.76-3,1.53-4.47,2.33-.77-1.38-2.22-2.32-3.91-2.32-2.49,0-4.5,2.01-4.5,4.5,0,.86.25,1.65.67,2.33-.73.46-1.45.92-2.17,1.38-1.01-.45-2.21-.71-3.5-.71-3.59,0-6.5,2.01-6.5,4.5,0,.94.42,1.81,1.13,2.53-1.93,1.5-3.8,3.05-5.6,4.64-1.22-1.04-2.8-1.67-4.53-1.67-3.87,0-7,3.13-7,7,0,1.72.62,3.29,1.65,4.51-.82.93-1.61,1.86-2.39,2.81-5.39-1.45-13.82,7.31-19.18,20.11-5.55,13.24-5.71,25.8-.36,28.04.11.04.22.08.33.11,0,.25,0,.51-.01.76-2.35.82-4.03,3.04-4.03,5.66,0,2.85,1.99,5.23,4.66,5.84.36,2.67.86,5.31,1.5,7.92-1.85,5.05,1.34,15.12,8.3,24.85,4.02,5.62,8.55,10.08,12.71,12.84,1.03,1.12,2.09,2.23,3.18,3.31-.22.53-.35,1.12-.35,1.74,0,2.49,2.01,4.5,4.5,4.5.74,0,1.43-.2,2.04-.51,1.14.98,2.31,1.94,3.49,2.88.23,3.18,1.69,5.63,3.46,5.63.82,0,1.56-.52,2.16-1.39.6.43,1.21.85,1.83,1.27.66,5.32,8.84,12.52,20.22,17.28,9.82,4.11,19.26,5.26,24.4,3.4.03,0,.06.02.09.03-.12.29-.19.59-.19.91,0,1.93,2.46,3.5,5.5,3.5,2.06,0,3.86-.72,4.8-1.79.92.21,1.84.41,2.77.61-.04,1.77,1.97,3.56,4.75,4.12,2.87.57,5.48-.39,6.01-2.16,1.07.16,2.15.32,3.23.46.36,2.69,2.66,4.77,5.45,4.77,2.38,0,4.4-1.52,5.17-3.63,1.47.12,2.95.22,4.43.31,4.15,3.55,13.44,5.76,24.12,5.3,11.71-.51,21.48-4.07,24.53-8.51,1.86-.36,3.7-.75,5.53-1.16,1.27,1.03,3.35,1.7,5.72,1.7,3.87,0,7-1.79,7-4,0-.34-.08-.67-.22-.99,4.11-1.24,8.12-2.62,12.01-4.13,1.17.7,2.63,1.11,4.21,1.11,3.87,0,7-2.46,7-5.5,0-.14-.01-.28-.03-.43.45-.21.89-.43,1.33-.64,5.14,1.63,15.03-1.59,24.57-8.41,10.23-7.32,16.67-16.36,15.83-21.66.44-.51.88-1.01,1.31-1.52.71.74,1.57,1.17,2.48,1.17,2.49,0,4.5-3.13,4.5-7,0-1.05-.15-2.05-.42-2.95,1.12-1.7,2.18-3.43,3.18-5.18.24.07.48.13.75.13,1.38,0,2.5-1.12,2.5-2.5,0-.8-.38-1.5-.96-1.95.92-1.87,1.78-3.77,2.55-5.69.55.72,1.21,1.14,1.91,1.14,1.93,0,3.5-3.13,3.5-7,0-2.58-.7-4.83-1.74-6.04.1-.44.19-.89.28-1.33,4.78-2.54,6.83-13.95,4.57-26.95Z"/>
      <ellipse class="cls-1" cx="147.41" cy="82.72" rx="99.5" ry="54"/>
    </g>
  </g>
</svg>