<?xml version="1.0" encoding="UTF-8"?>
<svg id="Layer_2" data-name="Layer 2" xmlns="http://www.w3.org/2000/svg" xmlns:xlink="http://www.w3.org/1999/xlink" viewBox="0 0 163 164">
  <defs>
    <style>
      .cls-1, .cls-2, .cls-3, .cls-4 {
        fill: none;
      }

      .cls-2 {
        stroke: #cb423f;
      }

      .cls-2, .cls-3, .cls-4, .cls-5, .cls-6 {
        stroke-miterlimit: 10;
        stroke-width: 3px;
      }

      .cls-3, .cls-5, .cls-6 {
        stroke: #72010c;
      }

      .cls-4 {
        stroke: #b31f24;
      }

      .cls-7 {
        clip-path: url(#clippath);
      }

      .cls-8 {
        clip-path: url(#clippath-1);
      }

      .cls-9 {
        clip-path: url(#clippath-2);
      }

      .cls-5 {
        fill: #b31f24;
      }

      .cls-6 {
        fill: #cb423f;
      }
    </style>
    <clipPath id="clippath">
      <circle class="cls-1" cx="82" cy="82" r="80"/>
    </clipPath>
    <clipPath id="clippath-1">
      <circle class="cls-3" cx="81.5" cy="81.5" r="80"/>
    </clipPath>
    <clipPath id="clippath-2">
      <circle class="cls-1" cx="81.5" cy="81.5" r="80"/>
    </clipPath>
  </defs>
  <g id="Layer_1-2" data-name="Layer 1">
    <g>
      <circle class="cls-5" cx="81.5" cy="81.5" r="80"/>
      <g class="cls-7">
        <path class="cls-2" d="m5.7,114.3c56.77,44.96,136.83,38.25,179-15"/>
        <path class="cls-2" d="m-4.35,97.34c60.22,47.7,142.97,43.34,185.01-9.75"/>
        <path class="cls-2" d="m-8.96,118.95c61.6,48.79,143.3,48.05,182.66-1.64"/>
        <path class="cls-2" d="m2.26,92.43c65.36,40.15,139.81,37.52,166.47-5.88"/>
        <path class="cls-2" d="m169.87,76.77c-56.77,36.1-136.83,30.71-179-12.04"/>
        <path class="cls-2" d="m179.92,63.15C119.7,101.45,36.95,97.95-5.09,55.32"/>
        <path class="cls-2" d="m184.53,80.5c-61.6,39.18-143.3,38.59-182.66-1.32"/>
        <path class="cls-2" d="m173.31,59.21C107.95,91.45,33.5,89.34,6.84,54.49"/>
        <path class="cls-2" d="m168.11,48.7c-56.77,26.25-136.83,22.33-179-8.76"/>
        <path class="cls-2" d="m178.16,38.8c-60.22,27.85-142.97,25.3-185.01-5.69"/>
        <path class="cls-2" d="m182.77,51.41C121.16,79.9,39.47,79.47.11,50.46"/>
        <path class="cls-2" d="m171.55,35.94C106.19,59.37,31.74,57.84,5.08,32.5"/>
        <path class="cls-2" d="m168.11,10.78C111.34,46.89,31.28,41.5-10.89-1.26"/>
        <path class="cls-2" d="m178.16-2.84C117.94,35.46,35.19,31.96-6.85-10.66"/>
        <path class="cls-2" d="m182.77,14.51C121.16,53.69,39.47,53.1.11,13.19"/>
        <path class="cls-2" d="m171.55-6.78C106.19,25.46,31.74,23.35,5.08-11.5"/>
        <path class="cls-1" d="m134.68,60.15c-5.07-27.52-18.86-49.71-36.89-63.16.05.01.09.03.14.04-.66-.49-1.33-.94-2.02-1.37-4.67-1.07-9.48-1.67-14.4-1.67-7.91,0-15.55,1.45-22.76,4.11,11.4,22.7,18.25,51.78,18.25,83.5,0,40-10.9,75.82-28.09,99.91,8.37,1.03,17.01.42,25.66-2.05,43.07-12.29,69.97-65.71,60.1-119.32Z"/>
      </g>
      <g>
        <g class="cls-8">
          <path class="cls-6" d="m134.18,59.65c-5.07-27.52-18.86-49.71-36.89-63.16.05.01.09.03.14.04-.66-.49-1.33-.94-2.02-1.37-4.67-1.07-9.48-1.67-14.4-1.67-7.91,0-15.55,1.45-22.76,4.11,11.4,22.7,18.25,51.78,18.25,83.5,0,40-10.9,75.82-28.09,99.91,8.37,1.03,17.01.42,25.66-2.05,43.07-12.29,69.97-65.71,60.1-119.32Z"/>
        </g>
        <circle class="cls-3" cx="81.5" cy="81.5" r="80"/>
      </g>
      <g class="cls-9">
        <path class="cls-4" d="m84.5,161.5c44.96-56.77,38.25-136.83-15-179"/>
        <path class="cls-4" d="m67.53,171.56C115.23,111.33,110.87,28.59,57.79-13.45"/>
        <path class="cls-4" d="m89.14,176.16c48.79-61.6,48.05-143.3-1.64-182.66"/>
        <path class="cls-4" d="m62.63,164.94C102.77,99.58,100.15,25.13,56.75-1.52"/>
        <path class="cls-1" d="m134.18,59.65c-5.07-27.52-18.86-49.71-36.89-63.16.05.01.09.03.14.04-.66-.49-1.33-.94-2.02-1.37-4.67-1.07-9.48-1.67-14.4-1.67-7.91,0-15.55,1.45-22.76,4.11,11.4,22.7,18.25,51.78,18.25,83.5,0,40-10.9,75.82-28.09,99.91,8.37,1.03,17.01.42,25.66-2.05,43.07-12.29,69.97-65.71,60.1-119.32Z"/>
      </g>
      <ellipse class="cls-3" cx="81.5" cy="82" rx="80" ry="80.5"/>
    </g>
  </g>
</svg>